<svg width="22" height="22" viewBox="0 0 22 22" fill="none" xmlns="http://www.w3.org/2000/svg">
<path d="M21.407 9.56895L12.431 0.59395C12.243 0.405879 12.0197 0.256691 11.774 0.154906C11.5283 0.0531208 11.2649 0.000732422 10.999 0.000732422C10.733 0.000732422 10.4697 0.0531208 10.224 0.154906C9.97828 0.256691 9.75504 0.405879 9.56699 0.59395L0.599995 9.56295L0.590995 9.57195C0.313748 9.85012 0.123419 10.2029 0.0432098 10.5874C-0.0369989 10.9719 -0.003622 11.3714 0.139272 11.7372C0.282165 12.103 0.528402 12.4193 0.847964 12.6476C1.16753 12.8759 1.54661 13.0063 1.93899 13.023C1.95999 13.023 1.98099 13.023 2.00199 13.023H2.35999V19.6229C2.35867 20.252 2.60713 20.8558 3.05079 21.3017C3.49444 21.7476 4.09698 21.9991 4.72599 22.0009H8.23699C8.40806 22.0009 8.57212 21.933 8.69308 21.812C8.81404 21.6911 8.88199 21.527 8.88199 21.3559V16.1779C8.88358 15.8921 8.9981 15.6185 9.2006 15.4167C9.4031 15.215 9.67715 15.1015 9.96299 15.101H12.034C12.3205 15.1015 12.5952 15.2155 12.7978 15.4182C13.0004 15.6208 13.1145 15.8954 13.115 16.1819V21.3599C13.1161 21.5303 13.1845 21.6934 13.3053 21.8134C13.4262 21.9335 13.5896 22.001 13.76 22.0009H17.271C17.8993 22.0002 18.5017 21.7502 18.946 21.3059C19.3903 20.8616 19.6402 20.2593 19.641 19.6309V13.0309H19.973C20.3734 13.0307 20.7648 12.9118 21.0977 12.6893C21.4306 12.4668 21.69 12.1506 21.8434 11.7808C21.9967 11.4109 22.037 11.0038 21.9591 10.6111C21.8813 10.2183 21.6888 9.8574 21.406 9.57395L21.407 9.56895ZM20.494 11.521C20.4258 11.5896 20.3446 11.6441 20.2551 11.6811C20.1657 11.7182 20.0698 11.7372 19.973 11.7369H19C18.9153 11.7368 18.8313 11.7534 18.753 11.7858C18.6747 11.8181 18.6035 11.8657 18.5436 11.9256C18.4837 11.9855 18.4362 12.0566 18.4038 12.135C18.3715 12.2133 18.3549 12.2972 18.355 12.3819V19.6309C18.3545 19.9175 18.2404 20.1921 18.0378 20.3947C17.8352 20.5974 17.5605 20.7114 17.274 20.712H14.4V16.1779C14.3992 15.5496 14.1493 14.9473 13.705 14.503C13.2607 14.0587 12.6583 13.8087 12.03 13.808H9.96299C9.3345 13.8085 8.73189 14.0583 8.28738 14.5026C7.84288 14.9469 7.59279 15.5495 7.59199 16.1779V20.7109H4.72599C4.43946 20.7104 4.16481 20.5964 3.9622 20.3937C3.75958 20.1911 3.64552 19.9165 3.64499 19.6299V12.3809C3.64513 12.2962 3.62853 12.2123 3.59617 12.134C3.5638 12.0556 3.51629 11.9845 3.45637 11.9246C3.39645 11.8647 3.3253 11.8171 3.24698 11.7848C3.16867 11.7524 3.08473 11.7358 2.99999 11.7359H2.00999C1.86498 11.7345 1.72364 11.6902 1.60377 11.6086C1.48389 11.5269 1.39084 11.4117 1.33632 11.2773C1.2818 11.1429 1.26824 10.9954 1.29737 10.8534C1.3265 10.7113 1.39699 10.581 1.49999 10.4789L10.478 1.50095C10.5463 1.43259 10.6275 1.37835 10.7168 1.34135C10.8061 1.30435 10.9018 1.28531 10.9985 1.28531C11.0952 1.28531 11.1909 1.30435 11.2802 1.34135C11.3695 1.37835 11.4506 1.43259 11.519 1.50095L20.491 10.4729C20.6283 10.6112 20.7053 10.7981 20.7053 10.9929C20.7053 11.1878 20.6283 11.3747 20.491 11.5129L20.494 11.521Z" fill="#E36DA6"/>
</svg>
