<svg width="37" height="37" viewBox="0 0 37 37" fill="none" xmlns="http://www.w3.org/2000/svg">
<path d="M36 1H1V36H36V1Z" fill="white"/>
<path d="M36 1H37V0H36V1ZM1 1V0H0V1H1ZM1 36H0V37H1V36ZM36 36V37H37V36H36ZM8 12C7.44772 12 7 12.4477 7 13C7 13.5523 7.44772 14 8 14V12ZM29.391 14C29.9433 14 30.391 13.5523 30.391 13C30.391 12.4477 29.9433 12 29.391 12V14ZM15.391 18C14.8387 18 14.391 18.4477 14.391 19C14.391 19.5523 14.8387 20 15.391 20V18ZM29.391 20C29.9433 20 30.391 19.5523 30.391 19C30.391 18.4477 29.9433 18 29.391 18V20ZM8 24C7.44772 24 7 24.4477 7 25C7 25.5523 7.44772 26 8 26V24ZM29.391 26C29.9433 26 30.391 25.5523 30.391 25C30.391 24.4477 29.9433 24 29.391 24V26ZM36 0H1V2H36V0ZM0 1V36H2V1H0ZM1 37H36V35H1V37ZM37 36V1H35V36H37ZM8 14H29.391V12H8V14ZM15.391 20H29.391V18H15.391V20ZM8 26H29.391V24H8V26Z" fill="#E36DA6"/>
</svg>
